<mxfile host="app.diagrams.net" modified="2024-04-17T08:34:22.165Z" agent="Mozilla/5.0 (Macintosh; Intel Mac OS X 10_15_7) AppleWebKit/537.36 (KHTML, like Gecko) Chrome/123.0.0.0 Safari/537.36" etag="8YRKBfqoZwQmKqRq4dBV" version="24.2.5" type="github">
  <diagram name="第 1 页" id="hnczVXriIx3awyhciicC">
    <mxGraphModel dx="1306" dy="801" grid="1" gridSize="10" guides="1" tooltips="1" connect="1" arrows="1" fold="1" page="1" pageScale="1" pageWidth="827" pageHeight="1169" math="0" shadow="0">
      <root>
        <mxCell id="0" />
        <mxCell id="1" parent="0" />
        <mxCell id="DnWxmU9R367m6Nypd1nd-1" value="北斗信标" style="rounded=0;whiteSpace=wrap;html=1;" vertex="1" parent="1">
          <mxGeometry x="180" y="250" width="120" height="60" as="geometry" />
        </mxCell>
        <mxCell id="DnWxmU9R367m6Nypd1nd-6" style="edgeStyle=orthogonalEdgeStyle;rounded=0;orthogonalLoop=1;jettySize=auto;html=1;exitX=1;exitY=0.5;exitDx=0;exitDy=0;entryX=0.5;entryY=1;entryDx=0;entryDy=0;" edge="1" parent="1" source="DnWxmU9R367m6Nypd1nd-2" target="DnWxmU9R367m6Nypd1nd-5">
          <mxGeometry relative="1" as="geometry" />
        </mxCell>
        <mxCell id="DnWxmU9R367m6Nypd1nd-2" value="北斗卡" style="rounded=0;whiteSpace=wrap;html=1;" vertex="1" parent="1">
          <mxGeometry x="180" y="370" width="120" height="60" as="geometry" />
        </mxCell>
        <mxCell id="DnWxmU9R367m6Nypd1nd-3" value="" style="endArrow=classic;startArrow=classic;html=1;rounded=0;entryX=0.5;entryY=1;entryDx=0;entryDy=0;" edge="1" parent="1" target="DnWxmU9R367m6Nypd1nd-1">
          <mxGeometry width="50" height="50" relative="1" as="geometry">
            <mxPoint x="240" y="370" as="sourcePoint" />
            <mxPoint x="290" y="320" as="targetPoint" />
          </mxGeometry>
        </mxCell>
        <mxCell id="DnWxmU9R367m6Nypd1nd-4" value="当距离靠近则通信" style="text;html=1;align=center;verticalAlign=middle;resizable=0;points=[];autosize=1;strokeColor=none;fillColor=none;" vertex="1" parent="1">
          <mxGeometry x="240" y="328" width="120" height="30" as="geometry" />
        </mxCell>
        <mxCell id="DnWxmU9R367m6Nypd1nd-8" style="edgeStyle=orthogonalEdgeStyle;rounded=0;orthogonalLoop=1;jettySize=auto;html=1;exitX=1;exitY=0.5;exitDx=0;exitDy=0;entryX=0;entryY=0.5;entryDx=0;entryDy=0;" edge="1" parent="1" source="DnWxmU9R367m6Nypd1nd-5" target="DnWxmU9R367m6Nypd1nd-9">
          <mxGeometry relative="1" as="geometry">
            <mxPoint x="570" y="250" as="targetPoint" />
          </mxGeometry>
        </mxCell>
        <mxCell id="DnWxmU9R367m6Nypd1nd-5" value="北斗云平台" style="rounded=0;whiteSpace=wrap;html=1;" vertex="1" parent="1">
          <mxGeometry x="390" y="220" width="120" height="60" as="geometry" />
        </mxCell>
        <mxCell id="DnWxmU9R367m6Nypd1nd-7" value="上报" style="text;html=1;align=center;verticalAlign=middle;resizable=0;points=[];autosize=1;strokeColor=none;fillColor=none;" vertex="1" parent="1">
          <mxGeometry x="375" y="398" width="50" height="30" as="geometry" />
        </mxCell>
        <mxCell id="DnWxmU9R367m6Nypd1nd-12" style="edgeStyle=orthogonalEdgeStyle;rounded=0;orthogonalLoop=1;jettySize=auto;html=1;exitX=0.5;exitY=1;exitDx=0;exitDy=0;" edge="1" parent="1" source="DnWxmU9R367m6Nypd1nd-9">
          <mxGeometry relative="1" as="geometry">
            <mxPoint x="690" y="350" as="targetPoint" />
          </mxGeometry>
        </mxCell>
        <mxCell id="DnWxmU9R367m6Nypd1nd-9" value="兆慧消息处理中间件" style="rounded=1;whiteSpace=wrap;html=1;" vertex="1" parent="1">
          <mxGeometry x="630" y="220" width="120" height="60" as="geometry" />
        </mxCell>
        <mxCell id="DnWxmU9R367m6Nypd1nd-10" value="推送" style="text;html=1;align=center;verticalAlign=middle;resizable=0;points=[];autosize=1;strokeColor=none;fillColor=none;" vertex="1" parent="1">
          <mxGeometry x="545" y="218" width="50" height="30" as="geometry" />
        </mxCell>
        <mxCell id="DnWxmU9R367m6Nypd1nd-14" style="edgeStyle=orthogonalEdgeStyle;rounded=0;orthogonalLoop=1;jettySize=auto;html=1;exitX=0.5;exitY=1;exitDx=0;exitDy=0;" edge="1" parent="1" source="DnWxmU9R367m6Nypd1nd-13" target="DnWxmU9R367m6Nypd1nd-15">
          <mxGeometry relative="1" as="geometry">
            <mxPoint x="690" y="470" as="targetPoint" />
          </mxGeometry>
        </mxCell>
        <mxCell id="DnWxmU9R367m6Nypd1nd-36" value="" style="edgeStyle=orthogonalEdgeStyle;rounded=0;orthogonalLoop=1;jettySize=auto;html=1;" edge="1" parent="1" source="DnWxmU9R367m6Nypd1nd-13" target="DnWxmU9R367m6Nypd1nd-15">
          <mxGeometry relative="1" as="geometry" />
        </mxCell>
        <mxCell id="DnWxmU9R367m6Nypd1nd-39" style="edgeStyle=orthogonalEdgeStyle;rounded=0;orthogonalLoop=1;jettySize=auto;html=1;exitX=0.5;exitY=1;exitDx=0;exitDy=0;" edge="1" parent="1" source="DnWxmU9R367m6Nypd1nd-13" target="DnWxmU9R367m6Nypd1nd-38">
          <mxGeometry relative="1" as="geometry" />
        </mxCell>
        <mxCell id="DnWxmU9R367m6Nypd1nd-13" value="是否是信标" style="rounded=1;whiteSpace=wrap;html=1;" vertex="1" parent="1">
          <mxGeometry x="630" y="350" width="120" height="60" as="geometry" />
        </mxCell>
        <mxCell id="DnWxmU9R367m6Nypd1nd-18" value="" style="edgeStyle=orthogonalEdgeStyle;rounded=0;orthogonalLoop=1;jettySize=auto;html=1;" edge="1" parent="1" source="DnWxmU9R367m6Nypd1nd-15" target="DnWxmU9R367m6Nypd1nd-17">
          <mxGeometry relative="1" as="geometry" />
        </mxCell>
        <mxCell id="DnWxmU9R367m6Nypd1nd-56" value="是" style="edgeLabel;html=1;align=center;verticalAlign=middle;resizable=0;points=[];" vertex="1" connectable="0" parent="DnWxmU9R367m6Nypd1nd-18">
          <mxGeometry x="-0.7333" y="-2" relative="1" as="geometry">
            <mxPoint as="offset" />
          </mxGeometry>
        </mxCell>
        <mxCell id="DnWxmU9R367m6Nypd1nd-47" style="edgeStyle=orthogonalEdgeStyle;rounded=0;orthogonalLoop=1;jettySize=auto;html=1;exitX=0;exitY=0.5;exitDx=0;exitDy=0;entryX=0.5;entryY=0;entryDx=0;entryDy=0;" edge="1" parent="1" source="DnWxmU9R367m6Nypd1nd-15" target="DnWxmU9R367m6Nypd1nd-45">
          <mxGeometry relative="1" as="geometry" />
        </mxCell>
        <mxCell id="DnWxmU9R367m6Nypd1nd-48" value="否" style="edgeLabel;html=1;align=center;verticalAlign=middle;resizable=0;points=[];" vertex="1" connectable="0" parent="DnWxmU9R367m6Nypd1nd-47">
          <mxGeometry x="-0.6132" y="3" relative="1" as="geometry">
            <mxPoint x="1" as="offset" />
          </mxGeometry>
        </mxCell>
        <mxCell id="DnWxmU9R367m6Nypd1nd-15" value="是否重要信标" style="rounded=1;whiteSpace=wrap;html=1;" vertex="1" parent="1">
          <mxGeometry x="545" y="490" width="120" height="60" as="geometry" />
        </mxCell>
        <mxCell id="DnWxmU9R367m6Nypd1nd-16" value="是" style="text;html=1;align=center;verticalAlign=middle;resizable=0;points=[];autosize=1;strokeColor=none;fillColor=none;" vertex="1" parent="1">
          <mxGeometry x="610" y="428" width="40" height="30" as="geometry" />
        </mxCell>
        <mxCell id="DnWxmU9R367m6Nypd1nd-19" style="edgeStyle=orthogonalEdgeStyle;rounded=0;orthogonalLoop=1;jettySize=auto;html=1;exitX=0.5;exitY=1;exitDx=0;exitDy=0;" edge="1" parent="1" source="DnWxmU9R367m6Nypd1nd-17" target="DnWxmU9R367m6Nypd1nd-21">
          <mxGeometry relative="1" as="geometry">
            <mxPoint x="540" y="730" as="targetPoint" />
          </mxGeometry>
        </mxCell>
        <mxCell id="DnWxmU9R367m6Nypd1nd-58" style="edgeStyle=orthogonalEdgeStyle;rounded=0;orthogonalLoop=1;jettySize=auto;html=1;exitX=0;exitY=0.5;exitDx=0;exitDy=0;" edge="1" parent="1" source="DnWxmU9R367m6Nypd1nd-17" target="DnWxmU9R367m6Nypd1nd-45">
          <mxGeometry relative="1" as="geometry" />
        </mxCell>
        <mxCell id="DnWxmU9R367m6Nypd1nd-59" value="已存在相同北斗卡及人关联的规则或信标的工单" style="edgeLabel;html=1;align=center;verticalAlign=middle;resizable=0;points=[];" vertex="1" connectable="0" parent="DnWxmU9R367m6Nypd1nd-58">
          <mxGeometry x="-0.2549" y="-2" relative="1" as="geometry">
            <mxPoint x="1" as="offset" />
          </mxGeometry>
        </mxCell>
        <mxCell id="DnWxmU9R367m6Nypd1nd-17" value="处理锁单(防止重复生成工单)" style="whiteSpace=wrap;html=1;rounded=1;" vertex="1" parent="1">
          <mxGeometry x="545" y="650" width="120" height="60" as="geometry" />
        </mxCell>
        <mxCell id="DnWxmU9R367m6Nypd1nd-23" style="edgeStyle=orthogonalEdgeStyle;rounded=0;orthogonalLoop=1;jettySize=auto;html=1;exitX=1;exitY=0.5;exitDx=0;exitDy=0;" edge="1" parent="1" source="DnWxmU9R367m6Nypd1nd-21">
          <mxGeometry relative="1" as="geometry">
            <mxPoint x="700" y="890" as="targetPoint" />
          </mxGeometry>
        </mxCell>
        <mxCell id="DnWxmU9R367m6Nypd1nd-21" value="推送兆慧工单系统" style="rounded=1;whiteSpace=wrap;html=1;" vertex="1" parent="1">
          <mxGeometry x="470" y="860" width="120" height="60" as="geometry" />
        </mxCell>
        <mxCell id="DnWxmU9R367m6Nypd1nd-28" style="edgeStyle=orthogonalEdgeStyle;rounded=0;orthogonalLoop=1;jettySize=auto;html=1;exitX=0.5;exitY=0.5;exitDx=0;exitDy=0;exitPerimeter=0;entryX=0;entryY=0.5;entryDx=0;entryDy=0;" edge="1" parent="1" source="DnWxmU9R367m6Nypd1nd-24" target="DnWxmU9R367m6Nypd1nd-27">
          <mxGeometry relative="1" as="geometry" />
        </mxCell>
        <mxCell id="DnWxmU9R367m6Nypd1nd-24" value="物业人员" style="shape=umlActor;verticalLabelPosition=bottom;verticalAlign=top;html=1;outlineConnect=0;" vertex="1" parent="1">
          <mxGeometry x="710" y="860" width="30" height="60" as="geometry" />
        </mxCell>
        <mxCell id="DnWxmU9R367m6Nypd1nd-26" value="您有北斗告警待处理" style="text;html=1;align=center;verticalAlign=middle;resizable=0;points=[];autosize=1;strokeColor=none;fillColor=none;" vertex="1" parent="1">
          <mxGeometry x="580" y="868" width="130" height="30" as="geometry" />
        </mxCell>
        <mxCell id="DnWxmU9R367m6Nypd1nd-30" style="edgeStyle=orthogonalEdgeStyle;rounded=0;orthogonalLoop=1;jettySize=auto;html=1;exitX=1;exitY=0.5;exitDx=0;exitDy=0;" edge="1" parent="1" source="DnWxmU9R367m6Nypd1nd-27">
          <mxGeometry relative="1" as="geometry">
            <mxPoint x="1040" y="890" as="targetPoint" />
          </mxGeometry>
        </mxCell>
        <mxCell id="DnWxmU9R367m6Nypd1nd-27" value="工单池接单" style="rounded=1;whiteSpace=wrap;html=1;arcSize=29;" vertex="1" parent="1">
          <mxGeometry x="830" y="860" width="120" height="60" as="geometry" />
        </mxCell>
        <mxCell id="DnWxmU9R367m6Nypd1nd-33" style="edgeStyle=orthogonalEdgeStyle;rounded=0;orthogonalLoop=1;jettySize=auto;html=1;exitX=1;exitY=0.5;exitDx=0;exitDy=0;entryX=0;entryY=0.5;entryDx=0;entryDy=0;" edge="1" parent="1" source="DnWxmU9R367m6Nypd1nd-31" target="DnWxmU9R367m6Nypd1nd-32">
          <mxGeometry relative="1" as="geometry" />
        </mxCell>
        <mxCell id="DnWxmU9R367m6Nypd1nd-31" value="处理" style="rounded=1;whiteSpace=wrap;html=1;" vertex="1" parent="1">
          <mxGeometry x="1040" y="860" width="120" height="60" as="geometry" />
        </mxCell>
        <mxCell id="DnWxmU9R367m6Nypd1nd-34" style="edgeStyle=orthogonalEdgeStyle;rounded=0;orthogonalLoop=1;jettySize=auto;html=1;exitX=0.5;exitY=0;exitDx=0;exitDy=0;entryX=1;entryY=0.5;entryDx=0;entryDy=0;" edge="1" parent="1" source="DnWxmU9R367m6Nypd1nd-32" target="DnWxmU9R367m6Nypd1nd-17">
          <mxGeometry relative="1" as="geometry" />
        </mxCell>
        <mxCell id="DnWxmU9R367m6Nypd1nd-32" value="结束" style="rounded=1;whiteSpace=wrap;html=1;" vertex="1" parent="1">
          <mxGeometry x="1240" y="860" width="120" height="60" as="geometry" />
        </mxCell>
        <mxCell id="DnWxmU9R367m6Nypd1nd-35" value="锁定释放" style="text;html=1;align=center;verticalAlign=middle;resizable=0;points=[];autosize=1;strokeColor=none;fillColor=none;" vertex="1" parent="1">
          <mxGeometry x="895" y="628" width="70" height="30" as="geometry" />
        </mxCell>
        <mxCell id="DnWxmU9R367m6Nypd1nd-42" value="" style="edgeStyle=orthogonalEdgeStyle;rounded=0;orthogonalLoop=1;jettySize=auto;html=1;" edge="1" parent="1" source="DnWxmU9R367m6Nypd1nd-38" target="DnWxmU9R367m6Nypd1nd-41">
          <mxGeometry relative="1" as="geometry" />
        </mxCell>
        <mxCell id="DnWxmU9R367m6Nypd1nd-61" style="edgeStyle=orthogonalEdgeStyle;rounded=0;orthogonalLoop=1;jettySize=auto;html=1;exitX=0.5;exitY=1;exitDx=0;exitDy=0;" edge="1" parent="1" source="DnWxmU9R367m6Nypd1nd-38" target="DnWxmU9R367m6Nypd1nd-45">
          <mxGeometry relative="1" as="geometry">
            <Array as="points">
              <mxPoint x="770" y="1020" />
              <mxPoint x="110" y="1020" />
            </Array>
          </mxGeometry>
        </mxCell>
        <mxCell id="DnWxmU9R367m6Nypd1nd-62" value="否" style="edgeLabel;html=1;align=center;verticalAlign=middle;resizable=0;points=[];" vertex="1" connectable="0" parent="DnWxmU9R367m6Nypd1nd-61">
          <mxGeometry x="0.2264" y="2" relative="1" as="geometry">
            <mxPoint x="1" as="offset" />
          </mxGeometry>
        </mxCell>
        <mxCell id="DnWxmU9R367m6Nypd1nd-38" value="是否规则" style="rounded=1;whiteSpace=wrap;html=1;" vertex="1" parent="1">
          <mxGeometry x="710" y="490" width="120" height="60" as="geometry" />
        </mxCell>
        <mxCell id="DnWxmU9R367m6Nypd1nd-40" value="否" style="text;html=1;align=center;verticalAlign=middle;resizable=0;points=[];autosize=1;strokeColor=none;fillColor=none;" vertex="1" parent="1">
          <mxGeometry x="715" y="428" width="40" height="30" as="geometry" />
        </mxCell>
        <mxCell id="DnWxmU9R367m6Nypd1nd-52" style="edgeStyle=orthogonalEdgeStyle;rounded=0;orthogonalLoop=1;jettySize=auto;html=1;exitX=0.5;exitY=1;exitDx=0;exitDy=0;entryX=0;entryY=0.5;entryDx=0;entryDy=0;" edge="1" parent="1" source="DnWxmU9R367m6Nypd1nd-41" target="DnWxmU9R367m6Nypd1nd-17">
          <mxGeometry relative="1" as="geometry" />
        </mxCell>
        <mxCell id="DnWxmU9R367m6Nypd1nd-53" value="是" style="edgeLabel;html=1;align=center;verticalAlign=middle;resizable=0;points=[];" vertex="1" connectable="0" parent="DnWxmU9R367m6Nypd1nd-52">
          <mxGeometry x="-0.281" y="1" relative="1" as="geometry">
            <mxPoint as="offset" />
          </mxGeometry>
        </mxCell>
        <mxCell id="DnWxmU9R367m6Nypd1nd-54" style="edgeStyle=orthogonalEdgeStyle;rounded=0;orthogonalLoop=1;jettySize=auto;html=1;exitX=0.5;exitY=0;exitDx=0;exitDy=0;" edge="1" parent="1" source="DnWxmU9R367m6Nypd1nd-41" target="DnWxmU9R367m6Nypd1nd-45">
          <mxGeometry relative="1" as="geometry" />
        </mxCell>
        <mxCell id="DnWxmU9R367m6Nypd1nd-55" value="否" style="edgeLabel;html=1;align=center;verticalAlign=middle;resizable=0;points=[];" vertex="1" connectable="0" parent="DnWxmU9R367m6Nypd1nd-54">
          <mxGeometry x="-0.09" relative="1" as="geometry">
            <mxPoint x="1" as="offset" />
          </mxGeometry>
        </mxCell>
        <mxCell id="DnWxmU9R367m6Nypd1nd-41" value="计算当前经纬度是否在规则内" style="whiteSpace=wrap;html=1;rounded=1;" vertex="1" parent="1">
          <mxGeometry x="910" y="490" width="120" height="60" as="geometry" />
        </mxCell>
        <mxCell id="DnWxmU9R367m6Nypd1nd-43" value="是" style="text;html=1;align=center;verticalAlign=middle;resizable=0;points=[];autosize=1;strokeColor=none;fillColor=none;" vertex="1" parent="1">
          <mxGeometry x="850" y="498" width="40" height="30" as="geometry" />
        </mxCell>
        <mxCell id="DnWxmU9R367m6Nypd1nd-45" value="丢弃" style="rounded=1;whiteSpace=wrap;html=1;" vertex="1" parent="1">
          <mxGeometry x="50" y="853" width="120" height="60" as="geometry" />
        </mxCell>
        <mxCell id="DnWxmU9R367m6Nypd1nd-60" style="edgeStyle=orthogonalEdgeStyle;rounded=0;orthogonalLoop=1;jettySize=auto;html=1;exitX=0.5;exitY=1;exitDx=0;exitDy=0;" edge="1" parent="1" source="DnWxmU9R367m6Nypd1nd-38" target="DnWxmU9R367m6Nypd1nd-38">
          <mxGeometry relative="1" as="geometry" />
        </mxCell>
      </root>
    </mxGraphModel>
  </diagram>
</mxfile>
